<svg width="116" height="32" viewBox="0 0 116 32" fill="none" xmlns="http://www.w3.org/2000/svg">
<path d="M23.7721 31.0781L23.6158 31.0938L19.0377 30.7656L18.8814 30.9375L1.78768 29.2656L1.00643 29.1562L0.834559 29.0156L0.756434 27.7656L0.897059 27.6094L0.725184 27.4531L0.709559 27.1406C0.678309 26.6198 0.766851 26.3542 0.975184 26.3438L0.615809 25.7344L0.693934 24.625L0.865809 10.7344L0.209559 10.5156L0.00643382 9.73438C0.235601 9.72396 0.3606 9.24479 0.381434 8.29688L0.0220588 7.6875C-0.102941 5.91667 0.303309 5 1.24081 4.9375C1.42831 4.92708 1.51685 4.65625 1.50643 4.125L1.42831 3.03125L1.72518 2.70312L3.17831 3.39062L3.61581 2.89062L3.92831 2.85938L5.10018 3.73438L20.6783 3.9375L21.0689 2.65625L21.2252 2.79688L21.2408 2.95312L21.0064 4.0625L21.4439 3.71875L21.7564 3.70312L22.2564 3.98438L22.4127 3.96875L22.0221 2.90625L22.1627 2.73438L22.3189 2.71875C22.5273 2.70833 22.6679 3.17188 22.7408 4.10938L22.8971 4.09375L22.9752 3L23.2877 2.96875L23.3189 3.4375H23.4752L23.4596 3.125L23.2564 2.5L23.3971 2.32812H23.5533L23.7252 2.46875L23.7721 3.25L23.4908 3.75C23.5116 3.95833 23.6783 4.05208 23.9908 4.03125L24.1471 4.17188L24.2096 4.95312L24.0533 5.125L24.2252 5.26562L24.3814 7.45312L23.2721 7.53125L21.7096 7.48438L21.6002 26.9844L21.4596 27.1562L23.6627 27.1719L23.4908 27.0156C23.7929 23.6615 24.0325 18.6667 24.2096 12.0312L24.5221 12.0156L24.1158 26.9844L23.8346 27.4688L24.2096 28.2188C23.8241 28.7812 23.6783 29.7344 23.7721 31.0781ZM19.4127 26.9844L19.6627 7.46875H19.5064L13.2252 7.57812L11.9283 18.6875L11.9439 19L11.6314 19.0156L10.8189 9.3125L10.6783 7.28125L10.0533 7.32812L4.06893 7.26562L3.83456 26.9375L7.61581 27L7.75643 12.8281L7.72518 12.3594L8.03768 12.3438L9.66268 27.0156L13.5846 27.0625L15.5846 12.2969L15.8971 12.2812L15.6314 27.0781L19.4127 27.1406V26.9844ZM2.25643 19.9688L2.17831 18.875H2.02206L2.10018 19.9688H2.25643ZM2.30331 18.2344L2.20956 16.8281H2.05331L2.14706 18.2344H2.30331ZM6.58456 14.1719L6.41268 14.0156L6.39706 13.7031H6.55331L6.88143 13.9844L6.74081 14.1562L6.58456 14.1719ZM2.14706 13.6875L2.02206 11.7969L1.72518 9.78125H1.56893L1.60018 10.25L1.99081 13.6875H2.14706ZM24.6471 11.375L24.3346 11.3906L24.2721 10.6094L24.5846 10.5938L24.6471 11.375Z" fill="#FAFAFA"/>
<path d="M31.3971 25.8281L37.5064 25.9531L37.5221 25.625L38.9596 2.95312L32.8346 2.82812L32.1002 20.25L31.3971 25.8281ZM29.5064 0.828125L29.7877 1.10938H30.6471L40.7096 1.40625L40.9908 1.6875L39.8502 28.1094H39.5533L25.2096 27.8281L24.9127 26.6719L24.6314 26.9688H24.3346V26.3906H24.9127V26.1094L24.6314 25.8125V25.5312H25.2096C25.2096 24.9583 24.9179 24.6719 24.3346 24.6719C25.1054 24.026 25.4908 23.4531 25.4908 22.9531L25.2096 22.6562H24.9127L25.2096 22.375V22.0781L24.9127 21.7969V21.5156L25.2096 21.2188H25.4908L25.2096 20.9375V20.6406L25.4908 19.2188H25.2096L25.4908 18.9219V16.3438H26.6314V16.0469L26.0533 15.1875V14.9062H26.6314L27.2096 14.3281L26.9127 14.0469L27.2096 13.75V13.4688L26.9127 13.1719V12.8906L26.0533 3.70312L26.3502 3.40625V3.125C25.7773 3.125 25.4908 2.93229 25.4908 2.54688V1.98438L26.3502 1.10938H29.2252L29.5064 0.828125Z" fill="#FAFAFA"/>
<path d="M43.0064 8.98438L44.3658 9.28125L44.4752 9.17188L44.5846 9.1875C44.9804 9.42708 46.1366 9.60417 48.0533 9.71875L48.2564 9.73438V9.625L48.7877 9.76562L51.3189 9.92188L54.1627 10.2031C54.1419 10.5052 54.3762 10.7031 54.8658 10.7969C54.845 11.1719 54.9596 11.5885 55.2096 12.0469L55.5377 11.9531L55.5221 12.0625L55.4127 12.1719V12.2812L55.5846 12.7344L55.4752 12.8438V12.9531L55.5533 13.4062L55.4439 13.5C55.7773 13.7188 55.9335 14.0625 55.9127 14.5312C56.1627 14.5521 56.3606 14.7865 56.5064 15.2344L56.3814 15.3438V15.4531L56.4596 15.7969L56.2408 16L56.4439 16.2344L55.9908 16.5469V16.7656L56.0533 17.3281L55.8502 17.3125L55.8346 17.4219L56.1158 18L56.0064 18.0938V18.2188C56.1419 18.2188 56.2044 18.3333 56.1939 18.5625L56.2877 18.6719L56.3971 18.6875L56.0221 19.6562L55.7096 19.6406L55.7252 19.4219L55.6158 19.4062L55.6002 19.625L55.8033 19.8594L55.7877 19.9844L55.5846 19.9688L55.5689 20.0781L55.7877 20.0938L55.7721 20.3125L55.5533 20.2969L55.0846 21.1562L55.1783 21.2812V21.3906L54.9127 22.1406L55.0221 22.1562C54.97 22.5208 54.8554 22.6979 54.6783 22.6875L54.6627 22.7969L54.9908 22.8125L54.7564 23.1406L54.9439 23.4844L54.8346 23.5938L54.5064 23.6875V23.7969L54.7877 24.3594L54.4283 25.0156L54.7408 25.1406L54.8502 25.0312L54.9439 25.1562V25.2656L54.7096 25.4688L54.8189 25.5938L54.8033 25.7031L54.6783 26.0312L54.8814 26.2656V26.375L54.7564 26.4688L54.8502 26.8125L54.7408 26.9219L54.7252 27.0312L54.8033 27.4844L54.5846 27.6875L54.5221 28.5625L54.7408 28.5781V28.6875L54.3814 29.2188L54.3658 29.4375C54.5846 29.4583 54.6887 29.5417 54.6783 29.6875L54.3346 30L54.6158 30.6875C54.5846 31.125 54.3606 31.3333 53.9439 31.3125L51.6314 31.0625L51.3033 31.1562L50.8814 31.0156L50.7877 31L50.3502 31.0938L50.2564 30.9688H50.1471L49.4127 31.0312L46.8814 30.7656L42.4439 30.5L42.2564 30.2656L42.3033 29.5L42.4283 29.0625C42.3033 28.7604 42.2564 28.349 42.2877 27.8281L42.4127 27.7344L42.2096 27.5V27.3906L42.3971 26.1719L42.3033 25.8281L42.4283 25.7344L42.2096 25.7188L42.2252 25.5L42.4283 25.5156L42.5377 23.7344L42.4596 23.2812L42.6002 22.8438L42.5377 20.2812L42.5533 20.1719L42.3502 19.9375L42.4596 19.8438L42.3814 19.3906L43.0533 9.98438L43.1939 9.4375L42.8814 9.29688L42.8971 9.1875L43.0064 9.09375V8.98438ZM52.8346 16.2344L52.5221 16.2188L51.5846 16.0469C50.8554 16.349 50.4752 16.7708 50.4439 17.3125C50.8919 17.7188 51.1887 18.1094 51.3346 18.4844L51.3033 18.9219C51.0846 19.0573 50.9491 19.4948 50.8971 20.2344H50.8033L50.8814 20.5781C50.5689 20.9115 50.2773 21.6719 50.0064 22.8594L49.4752 22.9375L49.0377 21.4531L49.1627 20.9062C48.6002 19.8021 48.3346 19.0104 48.3658 18.5312L48.4127 17.75C48.4231 17.5833 48.6731 17.4896 49.1627 17.4688L49.1939 17.0156C49.2148 16.6094 48.9491 16.2969 48.3971 16.0781L47.5533 16.1406L46.6158 15.9688L46.4908 16.0781H46.3971L45.7721 15.8125C45.2616 16.0625 44.996 16.3802 44.9752 16.7656V16.875L45.4596 17.4688L46.3189 17.2969L46.9908 18.3281L46.9283 19.4375C47.2616 19.8438 47.5533 20.8646 47.8033 22.5C47.9491 22.5104 48.0116 22.625 47.9908 22.8438L47.8814 22.9531V23.0625C47.8606 23.3542 48.1419 23.8906 48.7252 24.6719L48.7877 25.5625L48.6471 26V26.1094L48.7096 26.6719C48.2825 26.6406 47.8971 27.2448 47.5533 28.4844L46.6939 28.6406H46.4752C46.2773 28.5469 46.1887 28.3177 46.2096 27.9531L46.4752 26.9688V26.8594C46.4127 26.1927 46.1523 25.8438 45.6939 25.8125C44.9127 25.8646 44.5116 26.1354 44.4908 26.625C44.47 26.9271 44.3866 27.0729 44.2408 27.0625L44.3971 27.9531L44.2564 28.6094L45.4439 30.0156L46.3971 30.0781L46.6939 30.3125L47.0064 30.3281C48.0273 29.8802 48.5533 29.3958 48.5846 28.875C49.1158 28.2812 49.4752 27.599 49.6627 26.8281C49.7877 26.8385 50.0012 26.1875 50.3033 24.875C50.5741 24.8854 50.8346 24.1198 51.0846 22.5781C51.3658 22.599 51.5377 22.0573 51.6002 20.9531C52.0898 20.974 52.4491 20.2552 52.6783 18.7969C53.3554 18.2656 53.6991 17.8385 53.7096 17.5156C53.72 17.3385 53.9491 17.0938 54.3971 16.7812C54.2408 16.4479 54.0064 16.2135 53.6939 16.0781L52.8346 16.2344Z" fill="#FAFAFA"/>
<path d="M67.4439 24.6094V24.5938C67.1939 24.6562 67.0689 24.7708 67.0689 24.9375C67.0689 25.0833 67.1471 25.1562 67.3033 25.1562C67.4387 25.125 67.5064 25.0677 67.5064 24.9844C67.4856 24.8698 67.4335 24.8125 67.3502 24.8125V24.7969L67.4596 24.75C67.6887 24.75 67.8033 24.8333 67.8033 25V25.0156C67.8033 25.1615 67.621 25.2448 67.2564 25.2656L67.2408 25.2812C67.0846 25.3438 67.0064 25.4531 67.0064 25.6094C67.0377 25.8594 67.1523 25.9844 67.3502 25.9844L67.4439 26C67.5689 26 67.6939 25.9427 67.8189 25.8281H67.8346C67.9283 25.9323 68.0481 25.9844 68.1939 25.9844C68.3814 25.9844 68.5012 25.9062 68.5533 25.75L68.5377 25.7344L68.5533 25.6406L68.5377 25.5781L68.5533 25.5156L68.5377 25.4531H68.3971V25.5469C68.3866 25.6719 68.3658 25.7344 68.3346 25.7344H68.2877C68.2773 25.7344 68.2616 25.6875 68.2408 25.5938H68.2721L68.2408 25.5781V25.5312L68.2721 25.5156L68.2408 25.5V25.0938L68.2721 25.0625C68.2721 24.8333 68.1575 24.6771 67.9283 24.5938H67.9127L67.8971 24.6094H67.8814L67.7252 24.5625L67.6939 24.5938H67.6783L67.6627 24.5625L67.4439 24.6094ZM67.7877 25.2969L67.8033 25.3125V25.5469C67.8033 25.6406 67.7564 25.7031 67.6627 25.7344H67.5846C67.4908 25.7344 67.4439 25.6719 67.4439 25.5469C67.4439 25.474 67.5585 25.3906 67.7877 25.2969ZM56.3814 0L71.8033 0.765625L72.0689 2.01562C71.9856 2.34896 71.8137 2.51562 71.5533 2.51562L71.8033 2.76562L71.4439 3.51562L71.5533 3.90625L71.4439 4.03125V4.15625L71.5533 4.65625H71.4439L71.5533 4.78125V4.90625L71.4439 5.40625L71.5533 5.53125V5.65625L71.4439 6.03125L71.5533 6.15625V6.28125C71.4075 6.875 71.2408 7.17188 71.0533 7.17188L71.3033 7.67188L71.1783 7.79688V7.92188L71.4439 8.79688H71.3033C71.7096 9.15104 71.9648 9.94792 72.0689 11.1875L72.1939 11.3125C71.9335 11.3646 71.8033 11.6979 71.8033 12.3125H71.6939L71.8033 12.4531V13.7031C71.5637 13.7031 71.4439 13.7865 71.4439 13.9531C71.7773 14.0885 71.9439 14.3802 71.9439 14.8281V14.9688C71.9439 15.1354 71.8137 15.2188 71.5533 15.2188V15.9688L71.6939 16.0938V16.2188L71.4439 16.4688L71.6939 16.8438L71.5533 16.9688H71.4439L71.6939 17.9844C71.4335 17.9844 71.3033 18.0677 71.3033 18.2344C71.6366 18.3906 71.9752 19.099 72.3189 20.3594L71.9439 20.5L72.1939 20.8594C71.996 20.8594 71.8658 21.1562 71.8033 21.75H71.6939L71.8033 21.8594L71.5533 23.1094L71.8033 23.3594V23.625C71.5637 23.875 71.4439 24.1667 71.4439 24.5H71.3033L71.4439 24.625V24.875L71.1783 25.2656C66.345 24.5885 63.0273 24.25 61.2252 24.25V24.375H61.1002V24C57.2773 23.5938 55.3658 23.2969 55.3658 23.1094C55.5325 21.4219 55.6991 16.7812 55.8658 9.1875L55.7564 9.04688V8.9375L55.9908 8.17188L56.1158 0.25L56.3814 0ZM61.1939 2.14062C59.0377 9.43229 57.3658 15.7083 56.1783 20.9688H56.3346L60.8658 21.125L61.1939 19.6875L61.0377 18.8906C61.246 18.8906 61.4023 18.5729 61.5064 17.9375L62.0064 17.7812L65.5689 17.9375C65.8918 18.9792 66.0533 20.1458 66.0533 21.4375H66.2096L70.1002 21.5938H71.3971V21.4375L67.5064 2.46875H64.7564L64.2721 2.79688H63.9439L64.1002 2.64062V2.3125H62.8033L61.1939 2.14062ZM63.9439 6.29688H64.2721L65.2408 14.2656L65.0846 14.4219H64.4283C63.0325 14.4219 62.3346 14.2135 62.3346 13.7969L63.9439 6.29688ZM57.5846 25.4844L57.6939 25.6094V25.7344H57.3189L57.5846 25.4844ZM56.0377 25.6094V25.875L55.4283 25.9844V25.7344L56.0377 25.6094ZM54.7721 25.875H55.1627V26.125H54.7721V25.875ZM59.1002 25.875C59.871 25.9479 60.2564 26.0729 60.2564 26.25H60.1314L59.1002 26.125V25.875ZM64.3502 26.5V26.625L64.8502 26.75L65.2252 26.625L64.9752 26.375L64.3502 26.5ZM67.9127 26.875L67.7877 26.75H67.5377V26.875L67.9127 27L68.4283 26.875L68.5533 27L68.6783 26.875V26.75L68.5533 26.625L67.9127 26.875Z" fill="#FAFAFA"/>
<path d="M73.4752 18.4531L73.3814 18.4375L73.3502 18.7031L72.6783 18.3125L70.7564 17.9844C70.5481 17.9323 70.7096 15.3854 71.2408 10.3438L71.2564 10.2188L71.1939 10.0781L71.2721 10.0938L71.2877 9.95312L71.2252 9.8125L71.3502 8.875V8.20312L71.4439 8.09375L71.6471 3.92188L71.7408 3.9375L71.7721 3L71.8814 2.20312L72.1627 2.10938L81.8658 2.95312C82.095 2.99479 82.1939 3.14583 82.1627 3.40625L82.1471 3.54688L82.0377 3.65625C82.2148 3.6875 82.2877 3.79167 82.2564 3.96875L82.1939 4.5L82.0221 4.46875L82.0533 4.20312L81.9596 4.1875L81.8814 4.84375L81.9752 4.73438C82.0689 4.74479 82.1366 4.9375 82.1783 5.3125L82.0689 5.42188L81.8189 5.25L81.7252 5.23438L81.6627 5.76562L81.7564 5.78125L81.8502 5.65625L81.8033 6.04688L81.6314 6.03125L81.4908 6.40625C81.47 6.5625 81.5741 6.67188 81.8033 6.73438L81.7252 7.26562L81.6471 7.25C80.8554 5.3125 79.8866 4.24479 78.7408 4.04688L77.3346 3.8125C74.2721 3.85417 72.5116 5.58333 72.0533 9L71.9752 9.53125L71.8189 11.3906C72.0377 14.6823 73.1418 16.4948 75.1314 16.8281L75.9283 16.9688L77.7252 17C78.9752 16.6875 80.0221 15.7865 80.8658 14.2969L80.9596 14.3125L80.9439 14.4375L80.7252 14.6719L80.8814 15.5156L80.8658 15.6406L80.7877 15.625L80.7096 15.4844L80.5846 16.4062L80.6627 16.5625L80.5533 16.6719L80.7252 16.7031L80.5221 16.9375V17.6094L80.6002 17.625L80.7096 17.5156L80.6783 17.7812L80.4908 17.75L80.4596 18.0156L80.6002 18.3125L80.5846 18.4375L80.4752 18.5625L80.4439 18.8281L80.5064 18.9688L80.4127 19.0938L80.3658 19.3438L80.4439 19.5L80.2252 19.7188L80.1627 19.5781L80.0689 19.5625L80.0533 19.7031L80.1158 19.8438L79.8346 19.9375L79.8658 19.7969L79.5846 19.8906L78.9908 19.5156L78.6002 19.8594L78.5064 19.8438L78.4283 19.6875L78.4127 19.8281L78.3502 19.6719L78.0689 19.7656L77.8189 19.5938L77.8033 19.7188L76.8971 19.0312L76.8658 19.2969C76.5741 19.2448 76.4179 19.0833 76.3971 18.8125L75.9127 19L75.7721 18.7031L75.6783 18.8281L75.3346 18.625L74.8814 18.6875L74.8971 18.5625L74.8346 18.4062C74.5325 18.3542 74.2512 18.4427 73.9908 18.6719L74.0533 18.8125L73.9127 19.2031L73.4752 18.4531ZM77.5846 19.2812L77.5533 18.875L77.4752 18.8594L77.4283 19.125L77.5064 19.2656L77.5846 19.2812ZM71.1939 16.7031L71.3189 15.7812L71.0533 15.7344L71.1158 16.6875L71.1939 16.7031ZM75.7721 13.4219C75.095 12.6406 74.8762 11.3854 75.1158 9.65625L75.1783 9.125C75.6575 7.58333 76.3502 6.89062 77.2564 7.04688C78.0377 7.17188 78.5168 7.83854 78.6939 9.04688L81.3346 8.8125L81.4283 8.82812L81.2877 9.89062V10.5625L81.1783 10.6875L81.0221 12.5625L80.9752 12.8125L78.2721 12.2188C78.1366 13.2396 77.5273 13.7708 76.4439 13.8125L75.7721 13.4219ZM81.1314 1.0625L81.6471 0.484375L81.5533 1.26562L81.1002 1.20312L81.1314 1.0625Z" fill="#FAFAFA"/>
<path d="M85.9596 21.5781L88.5846 21.4844L88.5689 19.5781L88.6939 4.75L86.0689 4.85938L86.1471 17.9844L85.9596 21.5781ZM95.1627 4.89062L92.4127 5.01562L92.7721 21.7969L94.8814 21.7031L95.1002 21.9375L95.3189 21.9219L95.3033 21.6875L95.1627 4.89062ZM88.5846 11.6406L88.5533 13.875H92.5689L92.5846 11.6406H88.5846ZM83.9908 1.34375L84.5533 1.21875C85.1679 1.25 85.4596 1.48438 85.4283 1.92188L86.5377 1.98438L87.4439 2.1875L89.1002 1.6875L98.2721 2.01562L98.8346 1.89062L98.8189 2.21875L98.6002 2.84375L98.6783 8.17188H98.5064L98.6783 8.34375L98.6627 8.5L98.4127 9.78125L98.5377 11.0781L98.3189 11.5469L98.6314 12.6875L98.4439 12.8438L98.5846 13.6562L98.4283 16.5469L98.5689 17.2031L98.3502 17.8438V18L98.6939 18.3438L98.2877 19.2812L98.4596 19.2969L98.2721 19.4531V19.6094L98.4127 20.4219L98.1939 20.8906L98.5689 20.9219L98.5533 21.0781L98.3502 21.5469L98.6939 21.8906L98.3189 22.1875L98.6627 22.5312H98.4752L98.6471 22.7031L98.4439 23.1719L98.5533 24.625L98.3658 24.7812L98.7096 25.125L98.6939 25.4375L98.4596 26.4062L98.6314 26.5781V26.7344L98.4127 27.2031L97.8658 27.1719L84.5689 25.2656L84.0221 25.2344C83.6575 25.2135 83.5273 24.2344 83.6314 22.2969C83.8293 18.4427 83.8918 13.7135 83.8189 8.10938L84.0064 8.125L83.8346 7.95312L84.0064 4.57812L83.9908 1.34375Z" fill="#FAFAFA"/>
<path d="M105.866 25.8281L111.975 25.9531L111.991 25.625L113.428 2.95312L107.303 2.82812L106.569 20.25L105.866 25.8281ZM103.975 0.828125L104.256 1.10938H105.116L115.178 1.40625L115.46 1.6875L114.319 28.1094H114.022L99.6783 27.8281L99.3814 26.6719L99.1002 26.9688H98.8033V26.3906H99.3814V26.1094L99.1002 25.8125V25.5312H99.6783C99.6783 24.9583 99.3866 24.6719 98.8033 24.6719C99.5741 24.026 99.9596 23.4531 99.9596 22.9531L99.6783 22.6562H99.3814L99.6783 22.375V22.0781L99.3814 21.7969V21.5156L99.6783 21.2188H99.9596L99.6783 20.9375V20.6406L99.9596 19.2188H99.6783L99.9596 18.9219V16.3438H101.1V16.0469L100.522 15.1875V14.9062H101.1L101.678 14.3281L101.381 14.0469L101.678 13.75V13.4688L101.381 13.1719V12.8906L100.522 3.70312L100.819 3.40625V3.125C100.246 3.125 99.9596 2.93229 99.9596 2.54688V1.98438L100.819 1.10938H103.694L103.975 0.828125Z" fill="#FAFAFA"/>
</svg>
